<mxfile host="app.diagrams.net" modified="2022-09-05T17:02:31.411Z" agent="5.0 (Windows NT 10.0; Win64; x64) AppleWebKit/537.36 (KHTML, like Gecko) Chrome/104.0.5112.84 Safari/537.36" etag="2O_xi3vQPYgs-Pkxtj6b" version="20.2.8" type="github" pages="3">
  <diagram name="ex1" id="e56a1550-8fbb-45ad-956c-1786394a9013">
    <mxGraphModel dx="994" dy="564" grid="1" gridSize="10" guides="1" tooltips="1" connect="1" arrows="1" fold="1" page="1" pageScale="1" pageWidth="1100" pageHeight="850" background="none" math="0" shadow="0">
      <root>
        <mxCell id="0" />
        <mxCell id="1" parent="0" />
        <mxCell id="Hf2RjDuYDYriRC8uR9l1-1" value="Pharmaceutical company" style="whiteSpace=wrap;html=1;align=center;" parent="1" vertex="1">
          <mxGeometry x="60" y="360" width="100" height="40" as="geometry" />
        </mxCell>
        <mxCell id="Hf2RjDuYDYriRC8uR9l1-2" value="sản xuất" style="shape=rhombus;perimeter=rhombusPerimeter;whiteSpace=wrap;html=1;align=center;" parent="1" vertex="1">
          <mxGeometry x="240" y="350" width="120" height="60" as="geometry" />
        </mxCell>
        <mxCell id="Hf2RjDuYDYriRC8uR9l1-3" value="Medicine" style="whiteSpace=wrap;html=1;align=center;" parent="1" vertex="1">
          <mxGeometry x="440" y="360" width="100" height="40" as="geometry" />
        </mxCell>
        <mxCell id="Hf2RjDuYDYriRC8uR9l1-5" value="" style="edgeStyle=entityRelationEdgeStyle;fontSize=12;html=1;endArrow=ERoneToMany;rounded=0;exitX=1;exitY=0.5;exitDx=0;exitDy=0;entryX=0;entryY=0.5;entryDx=0;entryDy=0;" parent="1" source="Hf2RjDuYDYriRC8uR9l1-2" target="Hf2RjDuYDYriRC8uR9l1-3" edge="1">
          <mxGeometry width="100" height="100" relative="1" as="geometry">
            <mxPoint x="430" y="670" as="sourcePoint" />
            <mxPoint x="530" y="570" as="targetPoint" />
          </mxGeometry>
        </mxCell>
        <mxCell id="Hf2RjDuYDYriRC8uR9l1-9" value="Drugsrote" style="whiteSpace=wrap;html=1;align=center;" parent="1" vertex="1">
          <mxGeometry x="440" y="140" width="100" height="40" as="geometry" />
        </mxCell>
        <mxCell id="Hf2RjDuYDYriRC8uR9l1-10" value="sell" style="shape=rhombus;perimeter=rhombusPerimeter;whiteSpace=wrap;html=1;align=center;" parent="1" vertex="1">
          <mxGeometry x="470" y="240" width="60" height="40" as="geometry" />
        </mxCell>
        <mxCell id="Hf2RjDuYDYriRC8uR9l1-14" value="Prescription" style="whiteSpace=wrap;html=1;align=center;" parent="1" vertex="1">
          <mxGeometry x="610" y="210" width="100" height="40" as="geometry" />
        </mxCell>
        <mxCell id="Hf2RjDuYDYriRC8uR9l1-26" value="Doctor" style="whiteSpace=wrap;html=1;align=center;" parent="1" vertex="1">
          <mxGeometry x="605" width="100" height="40" as="geometry" />
        </mxCell>
        <mxCell id="Hf2RjDuYDYriRC8uR9l1-27" value="write" style="shape=rhombus;perimeter=rhombusPerimeter;whiteSpace=wrap;html=1;align=center;" parent="1" vertex="1">
          <mxGeometry x="610" y="100" width="90" height="40" as="geometry" />
        </mxCell>
        <mxCell id="Hf2RjDuYDYriRC8uR9l1-30" value="Patient" style="whiteSpace=wrap;html=1;align=center;" parent="1" vertex="1">
          <mxGeometry x="910" y="210" width="100" height="40" as="geometry" />
        </mxCell>
        <mxCell id="Hf2RjDuYDYriRC8uR9l1-31" value="receive" style="shape=rhombus;perimeter=rhombusPerimeter;whiteSpace=wrap;html=1;align=center;" parent="1" vertex="1">
          <mxGeometry x="780" y="205" width="80" height="50" as="geometry" />
        </mxCell>
        <mxCell id="Hf2RjDuYDYriRC8uR9l1-32" value="" style="fontSize=12;html=1;endArrow=ERoneToMany;rounded=0;entryX=1;entryY=0.5;entryDx=0;entryDy=0;exitX=0;exitY=0.5;exitDx=0;exitDy=0;" parent="1" source="Hf2RjDuYDYriRC8uR9l1-31" target="Hf2RjDuYDYriRC8uR9l1-14" edge="1">
          <mxGeometry width="100" height="100" relative="1" as="geometry">
            <mxPoint x="480" y="340" as="sourcePoint" />
            <mxPoint x="580" y="240" as="targetPoint" />
          </mxGeometry>
        </mxCell>
        <mxCell id="Hf2RjDuYDYriRC8uR9l1-43" value="contracted" style="shape=rhombus;perimeter=rhombusPerimeter;whiteSpace=wrap;html=1;align=center;" parent="1" vertex="1">
          <mxGeometry x="50" y="140" width="120" height="60" as="geometry" />
        </mxCell>
        <mxCell id="MEU0RmTO3Lq_MODVFYJN-2" value="" style="fontSize=12;html=1;endArrow=ERoneToMany;rounded=0;exitX=0.5;exitY=1;exitDx=0;exitDy=0;entryX=0.652;entryY=0.02;entryDx=0;entryDy=0;entryPerimeter=0;" parent="1" source="Hf2RjDuYDYriRC8uR9l1-10" target="Hf2RjDuYDYriRC8uR9l1-3" edge="1">
          <mxGeometry width="100" height="100" relative="1" as="geometry">
            <mxPoint x="660" y="440" as="sourcePoint" />
            <mxPoint x="520" y="120" as="targetPoint" />
          </mxGeometry>
        </mxCell>
        <mxCell id="MEU0RmTO3Lq_MODVFYJN-7" value="" style="fontSize=12;html=1;endArrow=ERmandOne;rounded=0;entryX=0.5;entryY=1;entryDx=0;entryDy=0;exitX=0.5;exitY=0;exitDx=0;exitDy=0;" parent="1" source="Hf2RjDuYDYriRC8uR9l1-27" target="Hf2RjDuYDYriRC8uR9l1-26" edge="1">
          <mxGeometry width="100" height="100" relative="1" as="geometry">
            <mxPoint x="620" y="390" as="sourcePoint" />
            <mxPoint x="720" y="290" as="targetPoint" />
          </mxGeometry>
        </mxCell>
        <mxCell id="MEU0RmTO3Lq_MODVFYJN-11" value="" style="fontSize=12;html=1;endArrow=ERmandOne;rounded=0;entryX=0.5;entryY=0;entryDx=0;entryDy=0;exitX=0.5;exitY=1;exitDx=0;exitDy=0;" parent="1" source="Hf2RjDuYDYriRC8uR9l1-27" target="Hf2RjDuYDYriRC8uR9l1-14" edge="1">
          <mxGeometry width="100" height="100" relative="1" as="geometry">
            <mxPoint x="670" y="420" as="sourcePoint" />
            <mxPoint x="770" y="320" as="targetPoint" />
          </mxGeometry>
        </mxCell>
        <mxCell id="MEU0RmTO3Lq_MODVFYJN-12" value="contain" style="shape=rhombus;perimeter=rhombusPerimeter;whiteSpace=wrap;html=1;align=center;" parent="1" vertex="1">
          <mxGeometry x="620" y="300" width="80" height="40" as="geometry" />
        </mxCell>
        <mxCell id="MEU0RmTO3Lq_MODVFYJN-13" value="" style="fontSize=12;html=1;endArrow=ERzeroToOne;endFill=1;rounded=0;exitX=0.5;exitY=0;exitDx=0;exitDy=0;entryX=0.5;entryY=1;entryDx=0;entryDy=0;" parent="1" source="MEU0RmTO3Lq_MODVFYJN-12" target="Hf2RjDuYDYriRC8uR9l1-14" edge="1">
          <mxGeometry width="100" height="100" relative="1" as="geometry">
            <mxPoint x="780" y="420" as="sourcePoint" />
            <mxPoint x="880" y="320" as="targetPoint" />
          </mxGeometry>
        </mxCell>
        <mxCell id="MEU0RmTO3Lq_MODVFYJN-14" value="" style="edgeStyle=entityRelationEdgeStyle;fontSize=12;html=1;endArrow=ERoneToMany;rounded=0;entryX=1;entryY=0.5;entryDx=0;entryDy=0;exitX=0.5;exitY=1;exitDx=0;exitDy=0;" parent="1" source="MEU0RmTO3Lq_MODVFYJN-12" target="Hf2RjDuYDYriRC8uR9l1-3" edge="1">
          <mxGeometry width="100" height="100" relative="1" as="geometry">
            <mxPoint x="690" y="480" as="sourcePoint" />
            <mxPoint x="790" y="380" as="targetPoint" />
          </mxGeometry>
        </mxCell>
        <mxCell id="MEU0RmTO3Lq_MODVFYJN-15" value="" style="edgeStyle=entityRelationEdgeStyle;fontSize=12;html=1;endArrow=ERmandOne;rounded=0;entryX=0;entryY=0.5;entryDx=0;entryDy=0;" parent="1" source="Hf2RjDuYDYriRC8uR9l1-31" target="Hf2RjDuYDYriRC8uR9l1-30" edge="1">
          <mxGeometry width="100" height="100" relative="1" as="geometry">
            <mxPoint x="770" y="400" as="sourcePoint" />
            <mxPoint x="870" y="300" as="targetPoint" />
          </mxGeometry>
        </mxCell>
        <mxCell id="Ojc6ZMQlygA1INwzIAKs-1" value="" style="edgeStyle=entityRelationEdgeStyle;fontSize=12;html=1;endArrow=ERmandOne;rounded=0;entryX=1;entryY=0.5;entryDx=0;entryDy=0;exitX=0;exitY=0.5;exitDx=0;exitDy=0;" edge="1" parent="1" source="Hf2RjDuYDYriRC8uR9l1-2" target="Hf2RjDuYDYriRC8uR9l1-1">
          <mxGeometry width="100" height="100" relative="1" as="geometry">
            <mxPoint x="150" y="520" as="sourcePoint" />
            <mxPoint x="250" y="420" as="targetPoint" />
          </mxGeometry>
        </mxCell>
        <mxCell id="Ojc6ZMQlygA1INwzIAKs-2" value="" style="edgeStyle=entityRelationEdgeStyle;fontSize=12;html=1;endArrow=ERmany;rounded=0;entryX=0;entryY=0.5;entryDx=0;entryDy=0;exitX=1;exitY=0.5;exitDx=0;exitDy=0;" edge="1" parent="1" source="Hf2RjDuYDYriRC8uR9l1-43" target="Hf2RjDuYDYriRC8uR9l1-9">
          <mxGeometry width="100" height="100" relative="1" as="geometry">
            <mxPoint x="50" y="330" as="sourcePoint" />
            <mxPoint x="130" y="320" as="targetPoint" />
          </mxGeometry>
        </mxCell>
        <mxCell id="Ojc6ZMQlygA1INwzIAKs-3" value="" style="fontSize=12;html=1;endArrow=ERzeroToMany;endFill=1;rounded=0;entryX=0.5;entryY=0;entryDx=0;entryDy=0;exitX=0.5;exitY=1;exitDx=0;exitDy=0;" edge="1" parent="1" source="Hf2RjDuYDYriRC8uR9l1-43" target="Hf2RjDuYDYriRC8uR9l1-1">
          <mxGeometry width="100" height="100" relative="1" as="geometry">
            <mxPoint x="80" y="410" as="sourcePoint" />
            <mxPoint x="180" y="310" as="targetPoint" />
          </mxGeometry>
        </mxCell>
        <mxCell id="Ojc6ZMQlygA1INwzIAKs-4" value="" style="fontSize=12;html=1;endArrow=ERone;endFill=1;rounded=0;exitX=0.5;exitY=0;exitDx=0;exitDy=0;" edge="1" parent="1" source="Hf2RjDuYDYriRC8uR9l1-10">
          <mxGeometry width="100" height="100" relative="1" as="geometry">
            <mxPoint x="490" y="230" as="sourcePoint" />
            <mxPoint x="500" y="180" as="targetPoint" />
          </mxGeometry>
        </mxCell>
        <mxCell id="Ojc6ZMQlygA1INwzIAKs-5" value="manufacturing" style="shape=rhombus;perimeter=rhombusPerimeter;whiteSpace=wrap;html=1;align=center;" vertex="1" parent="1">
          <mxGeometry x="240" y="350" width="120" height="60" as="geometry" />
        </mxCell>
        <mxCell id="Ojc6ZMQlygA1INwzIAKs-6" value="ID" style="ellipse;whiteSpace=wrap;html=1;align=center;fontStyle=4;" vertex="1" parent="1">
          <mxGeometry x="30" y="440" width="80" height="30" as="geometry" />
        </mxCell>
        <mxCell id="Ojc6ZMQlygA1INwzIAKs-7" value="ID" style="ellipse;whiteSpace=wrap;html=1;align=center;fontStyle=4;" vertex="1" parent="1">
          <mxGeometry x="330" y="430" width="80" height="30" as="geometry" />
        </mxCell>
        <mxCell id="Ojc6ZMQlygA1INwzIAKs-8" value="ID" style="ellipse;whiteSpace=wrap;html=1;align=center;fontStyle=4;" vertex="1" parent="1">
          <mxGeometry x="740" y="280" width="80" height="30" as="geometry" />
        </mxCell>
        <mxCell id="Ojc6ZMQlygA1INwzIAKs-9" value="ID" style="ellipse;whiteSpace=wrap;html=1;align=center;fontStyle=4;" vertex="1" parent="1">
          <mxGeometry x="930" y="270" width="80" height="30" as="geometry" />
        </mxCell>
        <mxCell id="Ojc6ZMQlygA1INwzIAKs-10" value="ID" style="ellipse;whiteSpace=wrap;html=1;align=center;fontStyle=4;" vertex="1" parent="1">
          <mxGeometry x="490" y="10" width="80" height="30" as="geometry" />
        </mxCell>
        <mxCell id="Ojc6ZMQlygA1INwzIAKs-11" value="ID" style="ellipse;whiteSpace=wrap;html=1;align=center;fontStyle=4;" vertex="1" parent="1">
          <mxGeometry x="470" y="80" width="80" height="30" as="geometry" />
        </mxCell>
        <mxCell id="Ojc6ZMQlygA1INwzIAKs-12" value="Name" style="ellipse;whiteSpace=wrap;html=1;align=center;" vertex="1" parent="1">
          <mxGeometry x="30" y="480" width="80" height="30" as="geometry" />
        </mxCell>
        <mxCell id="Ojc6ZMQlygA1INwzIAKs-13" value="Name" style="ellipse;whiteSpace=wrap;html=1;align=center;" vertex="1" parent="1">
          <mxGeometry x="360" y="80" width="80" height="30" as="geometry" />
        </mxCell>
        <mxCell id="Ojc6ZMQlygA1INwzIAKs-14" value="Name" style="ellipse;whiteSpace=wrap;html=1;align=center;" vertex="1" parent="1">
          <mxGeometry x="430" y="430" width="80" height="30" as="geometry" />
        </mxCell>
        <mxCell id="Ojc6ZMQlygA1INwzIAKs-15" value="Name" style="ellipse;whiteSpace=wrap;html=1;align=center;" vertex="1" parent="1">
          <mxGeometry x="930" y="155" width="80" height="30" as="geometry" />
        </mxCell>
        <mxCell id="Ojc6ZMQlygA1INwzIAKs-16" value="Medicine" style="ellipse;whiteSpace=wrap;html=1;align=center;" vertex="1" parent="1">
          <mxGeometry x="740" y="360" width="80" height="30" as="geometry" />
        </mxCell>
        <mxCell id="Ojc6ZMQlygA1INwzIAKs-17" value="Patient" style="ellipse;whiteSpace=wrap;html=1;align=center;" vertex="1" parent="1">
          <mxGeometry x="740" y="320" width="80" height="30" as="geometry" />
        </mxCell>
        <mxCell id="Ojc6ZMQlygA1INwzIAKs-18" value="Price" style="ellipse;whiteSpace=wrap;html=1;align=center;" vertex="1" parent="1">
          <mxGeometry x="525" y="430" width="80" height="30" as="geometry" />
        </mxCell>
        <mxCell id="Ojc6ZMQlygA1INwzIAKs-19" value="Name" style="ellipse;whiteSpace=wrap;html=1;align=center;" vertex="1" parent="1">
          <mxGeometry x="770" y="5" width="80" height="30" as="geometry" />
        </mxCell>
        <mxCell id="Ojc6ZMQlygA1INwzIAKs-20" value="Phone" style="ellipse;whiteSpace=wrap;html=1;align=center;" vertex="1" parent="1">
          <mxGeometry x="810" y="155" width="80" height="30" as="geometry" />
        </mxCell>
        <mxCell id="Ojc6ZMQlygA1INwzIAKs-21" value="Phone" style="ellipse;whiteSpace=wrap;html=1;align=center;" vertex="1" parent="1">
          <mxGeometry x="770" y="50" width="80" height="30" as="geometry" />
        </mxCell>
        <mxCell id="Ojc6ZMQlygA1INwzIAKs-22" value="Doctor" style="ellipse;whiteSpace=wrap;html=1;align=center;" vertex="1" parent="1">
          <mxGeometry x="740" y="395" width="80" height="30" as="geometry" />
        </mxCell>
        <mxCell id="Ojc6ZMQlygA1INwzIAKs-23" value="Quantity" style="ellipse;whiteSpace=wrap;html=1;align=center;" vertex="1" parent="1">
          <mxGeometry x="615" y="430" width="80" height="30" as="geometry" />
        </mxCell>
        <mxCell id="Ojc6ZMQlygA1INwzIAKs-26" value="" style="endArrow=none;html=1;rounded=0;exitX=0.5;exitY=0;exitDx=0;exitDy=0;entryX=0.34;entryY=0.98;entryDx=0;entryDy=0;entryPerimeter=0;" edge="1" parent="1" source="Ojc6ZMQlygA1INwzIAKs-6" target="Hf2RjDuYDYriRC8uR9l1-1">
          <mxGeometry width="50" height="50" relative="1" as="geometry">
            <mxPoint x="140" y="480" as="sourcePoint" />
            <mxPoint x="190" y="430" as="targetPoint" />
          </mxGeometry>
        </mxCell>
        <mxCell id="Ojc6ZMQlygA1INwzIAKs-27" value="" style="endArrow=none;html=1;rounded=0;exitX=1;exitY=0.5;exitDx=0;exitDy=0;entryX=0.75;entryY=1;entryDx=0;entryDy=0;" edge="1" parent="1" source="Ojc6ZMQlygA1INwzIAKs-12" target="Hf2RjDuYDYriRC8uR9l1-1">
          <mxGeometry width="50" height="50" relative="1" as="geometry">
            <mxPoint x="160" y="500" as="sourcePoint" />
            <mxPoint x="210" y="450" as="targetPoint" />
            <Array as="points">
              <mxPoint x="130" y="490" />
            </Array>
          </mxGeometry>
        </mxCell>
        <mxCell id="Ojc6ZMQlygA1INwzIAKs-29" value="Date" style="ellipse;whiteSpace=wrap;html=1;align=center;" vertex="1" parent="1">
          <mxGeometry x="740" y="430" width="80" height="30" as="geometry" />
        </mxCell>
        <mxCell id="Ojc6ZMQlygA1INwzIAKs-30" value="" style="endArrow=none;html=1;rounded=0;exitX=1;exitY=0.5;exitDx=0;exitDy=0;entryX=0;entryY=0.5;entryDx=0;entryDy=0;" edge="1" parent="1" source="Ojc6ZMQlygA1INwzIAKs-10" target="Hf2RjDuYDYriRC8uR9l1-26">
          <mxGeometry width="50" height="50" relative="1" as="geometry">
            <mxPoint x="580" y="90" as="sourcePoint" />
            <mxPoint x="630" y="40" as="targetPoint" />
          </mxGeometry>
        </mxCell>
        <mxCell id="Ojc6ZMQlygA1INwzIAKs-31" value="" style="endArrow=none;html=1;rounded=0;exitX=1;exitY=0.5;exitDx=0;exitDy=0;entryX=0;entryY=0.5;entryDx=0;entryDy=0;" edge="1" parent="1" source="Hf2RjDuYDYriRC8uR9l1-26" target="Ojc6ZMQlygA1INwzIAKs-19">
          <mxGeometry width="50" height="50" relative="1" as="geometry">
            <mxPoint x="680" y="100" as="sourcePoint" />
            <mxPoint x="730" y="50" as="targetPoint" />
          </mxGeometry>
        </mxCell>
        <mxCell id="Ojc6ZMQlygA1INwzIAKs-32" value="" style="endArrow=none;html=1;rounded=0;exitX=0;exitY=0.25;exitDx=0;exitDy=0;" edge="1" parent="1" source="Hf2RjDuYDYriRC8uR9l1-9">
          <mxGeometry width="50" height="50" relative="1" as="geometry">
            <mxPoint x="340" y="160" as="sourcePoint" />
            <mxPoint x="390" y="110" as="targetPoint" />
          </mxGeometry>
        </mxCell>
        <mxCell id="Ojc6ZMQlygA1INwzIAKs-33" value="" style="endArrow=none;html=1;rounded=0;exitX=0.75;exitY=0;exitDx=0;exitDy=0;entryX=0.5;entryY=1;entryDx=0;entryDy=0;" edge="1" parent="1" source="Hf2RjDuYDYriRC8uR9l1-9" target="Ojc6ZMQlygA1INwzIAKs-11">
          <mxGeometry width="50" height="50" relative="1" as="geometry">
            <mxPoint x="540" y="160" as="sourcePoint" />
            <mxPoint x="590" y="110" as="targetPoint" />
          </mxGeometry>
        </mxCell>
        <mxCell id="Ojc6ZMQlygA1INwzIAKs-34" value="" style="endArrow=none;html=1;rounded=0;entryX=0.25;entryY=0;entryDx=0;entryDy=0;" edge="1" parent="1" target="Hf2RjDuYDYriRC8uR9l1-30">
          <mxGeometry width="50" height="50" relative="1" as="geometry">
            <mxPoint x="890" y="170" as="sourcePoint" />
            <mxPoint x="940" y="120" as="targetPoint" />
          </mxGeometry>
        </mxCell>
        <mxCell id="Ojc6ZMQlygA1INwzIAKs-35" value="" style="endArrow=none;html=1;rounded=0;" edge="1" parent="1" source="Ojc6ZMQlygA1INwzIAKs-9">
          <mxGeometry width="50" height="50" relative="1" as="geometry">
            <mxPoint x="935" y="300" as="sourcePoint" />
            <mxPoint x="985" y="250" as="targetPoint" />
          </mxGeometry>
        </mxCell>
        <mxCell id="Ojc6ZMQlygA1INwzIAKs-36" value="" style="endArrow=none;html=1;rounded=0;exitX=0.5;exitY=0;exitDx=0;exitDy=0;entryX=0.5;entryY=1;entryDx=0;entryDy=0;" edge="1" parent="1" source="Hf2RjDuYDYriRC8uR9l1-30" target="Ojc6ZMQlygA1INwzIAKs-15">
          <mxGeometry width="50" height="50" relative="1" as="geometry">
            <mxPoint x="960" y="200" as="sourcePoint" />
            <mxPoint x="1010" y="150" as="targetPoint" />
          </mxGeometry>
        </mxCell>
        <mxCell id="Ojc6ZMQlygA1INwzIAKs-37" value="" style="endArrow=none;html=1;rounded=0;exitX=1;exitY=1;exitDx=0;exitDy=0;entryX=0;entryY=0.5;entryDx=0;entryDy=0;" edge="1" parent="1" source="Hf2RjDuYDYriRC8uR9l1-26" target="Ojc6ZMQlygA1INwzIAKs-21">
          <mxGeometry width="50" height="50" relative="1" as="geometry">
            <mxPoint x="740" y="150" as="sourcePoint" />
            <mxPoint x="760" y="60" as="targetPoint" />
          </mxGeometry>
        </mxCell>
        <mxCell id="Ojc6ZMQlygA1INwzIAKs-38" value="" style="endArrow=none;html=1;rounded=0;entryX=0.25;entryY=1;entryDx=0;entryDy=0;" edge="1" parent="1" source="Ojc6ZMQlygA1INwzIAKs-7" target="Hf2RjDuYDYriRC8uR9l1-3">
          <mxGeometry width="50" height="50" relative="1" as="geometry">
            <mxPoint x="480" y="480" as="sourcePoint" />
            <mxPoint x="530" y="430" as="targetPoint" />
          </mxGeometry>
        </mxCell>
        <mxCell id="Ojc6ZMQlygA1INwzIAKs-39" value="" style="endArrow=none;html=1;rounded=0;exitX=0.5;exitY=0;exitDx=0;exitDy=0;entryX=0.4;entryY=1;entryDx=0;entryDy=0;entryPerimeter=0;" edge="1" parent="1" source="Ojc6ZMQlygA1INwzIAKs-14" target="Hf2RjDuYDYriRC8uR9l1-3">
          <mxGeometry width="50" height="50" relative="1" as="geometry">
            <mxPoint x="450" y="550" as="sourcePoint" />
            <mxPoint x="500" y="500" as="targetPoint" />
          </mxGeometry>
        </mxCell>
        <mxCell id="Ojc6ZMQlygA1INwzIAKs-40" value="" style="endArrow=none;html=1;rounded=0;exitX=0.5;exitY=0;exitDx=0;exitDy=0;entryX=0.75;entryY=1;entryDx=0;entryDy=0;" edge="1" parent="1" source="Ojc6ZMQlygA1INwzIAKs-18" target="Hf2RjDuYDYriRC8uR9l1-3">
          <mxGeometry width="50" height="50" relative="1" as="geometry">
            <mxPoint x="540" y="540" as="sourcePoint" />
            <mxPoint x="590" y="490" as="targetPoint" />
          </mxGeometry>
        </mxCell>
        <mxCell id="Ojc6ZMQlygA1INwzIAKs-41" value="" style="endArrow=none;html=1;rounded=0;exitX=0;exitY=0;exitDx=0;exitDy=0;entryX=1;entryY=1;entryDx=0;entryDy=0;" edge="1" parent="1" source="Ojc6ZMQlygA1INwzIAKs-23" target="Hf2RjDuYDYriRC8uR9l1-3">
          <mxGeometry width="50" height="50" relative="1" as="geometry">
            <mxPoint x="620" y="550" as="sourcePoint" />
            <mxPoint x="670" y="500" as="targetPoint" />
          </mxGeometry>
        </mxCell>
      </root>
    </mxGraphModel>
  </diagram>
  <diagram id="XjRn7lMFcRKrcEKqqThK" name="ex3">
    <mxGraphModel dx="994" dy="564" grid="1" gridSize="10" guides="1" tooltips="1" connect="1" arrows="1" fold="1" page="1" pageScale="1" pageWidth="827" pageHeight="1169" math="0" shadow="0">
      <root>
        <mxCell id="0" />
        <mxCell id="1" parent="0" />
        <mxCell id="2QmXWXQhHO9CwWQ-SPkW-15" value="Column" style="rounded=0;whiteSpace=wrap;html=1;" parent="1" vertex="1">
          <mxGeometry x="110" y="60" width="120" height="60" as="geometry" />
        </mxCell>
        <mxCell id="2QmXWXQhHO9CwWQ-SPkW-16" value="Data type" style="rounded=0;whiteSpace=wrap;html=1;" parent="1" vertex="1">
          <mxGeometry x="230" y="60" width="120" height="60" as="geometry" />
        </mxCell>
        <mxCell id="2QmXWXQhHO9CwWQ-SPkW-17" value="ID" style="rounded=0;whiteSpace=wrap;html=1;" parent="1" vertex="1">
          <mxGeometry x="110" y="120" width="120" height="60" as="geometry" />
        </mxCell>
        <mxCell id="2QmXWXQhHO9CwWQ-SPkW-18" value="&lt;span style=&quot;font-family: Muli, sans-serif; font-size: 15px; text-align: start; background-color: rgb(255, 255, 255);&quot;&gt;ModifiedDate&lt;/span&gt;" style="rounded=0;whiteSpace=wrap;html=1;" parent="1" vertex="1">
          <mxGeometry x="110" y="300" width="120" height="60" as="geometry" />
        </mxCell>
        <mxCell id="2QmXWXQhHO9CwWQ-SPkW-19" value="Code" style="rounded=0;whiteSpace=wrap;html=1;" parent="1" vertex="1">
          <mxGeometry x="110" y="240" width="120" height="60" as="geometry" />
        </mxCell>
        <mxCell id="2QmXWXQhHO9CwWQ-SPkW-20" value="Name" style="rounded=0;whiteSpace=wrap;html=1;" parent="1" vertex="1">
          <mxGeometry x="110" y="180" width="120" height="60" as="geometry" />
        </mxCell>
        <mxCell id="2QmXWXQhHO9CwWQ-SPkW-21" value="int identity(1,1) primary key" style="rounded=0;whiteSpace=wrap;html=1;" parent="1" vertex="1">
          <mxGeometry x="230" y="120" width="120" height="60" as="geometry" />
        </mxCell>
        <mxCell id="2QmXWXQhHO9CwWQ-SPkW-22" value="Char(50)" style="rounded=0;whiteSpace=wrap;html=1;" parent="1" vertex="1">
          <mxGeometry x="230" y="180" width="120" height="60" as="geometry" />
        </mxCell>
        <mxCell id="2QmXWXQhHO9CwWQ-SPkW-23" value="Varchar(5)" style="rounded=0;whiteSpace=wrap;html=1;" parent="1" vertex="1">
          <mxGeometry x="230" y="240" width="120" height="60" as="geometry" />
        </mxCell>
        <mxCell id="2QmXWXQhHO9CwWQ-SPkW-24" value="Smalldatetime" style="rounded=0;whiteSpace=wrap;html=1;" parent="1" vertex="1">
          <mxGeometry x="230" y="300" width="120" height="60" as="geometry" />
        </mxCell>
      </root>
    </mxGraphModel>
  </diagram>
  <diagram id="jW5jVpwRtEXAUoB9fhri" name="ex4">
    <mxGraphModel dx="994" dy="564" grid="1" gridSize="10" guides="1" tooltips="1" connect="1" arrows="1" fold="1" page="1" pageScale="1" pageWidth="827" pageHeight="1169" math="0" shadow="0">
      <root>
        <mxCell id="0" />
        <mxCell id="1" parent="0" />
        <mxCell id="ASx7LnkUKc0S-k7tM8Z2-1" value="Column" style="rounded=0;whiteSpace=wrap;html=1;" parent="1" vertex="1">
          <mxGeometry x="110" y="60" width="120" height="60" as="geometry" />
        </mxCell>
        <mxCell id="ASx7LnkUKc0S-k7tM8Z2-2" value="Data type" style="rounded=0;whiteSpace=wrap;html=1;" parent="1" vertex="1">
          <mxGeometry x="230" y="60" width="120" height="60" as="geometry" />
        </mxCell>
        <mxCell id="ASx7LnkUKc0S-k7tM8Z2-3" value="ID" style="rounded=0;whiteSpace=wrap;html=1;" parent="1" vertex="1">
          <mxGeometry x="110" y="120" width="120" height="60" as="geometry" />
        </mxCell>
        <mxCell id="ASx7LnkUKc0S-k7tM8Z2-4" value="&lt;span style=&quot;font-family: Muli, sans-serif; font-size: 15px; text-align: start; background-color: rgb(255, 255, 255);&quot;&gt;Gender&lt;/span&gt;" style="rounded=0;whiteSpace=wrap;html=1;" parent="1" vertex="1">
          <mxGeometry x="110" y="300" width="120" height="60" as="geometry" />
        </mxCell>
        <mxCell id="ASx7LnkUKc0S-k7tM8Z2-5" value="&lt;span style=&quot;font-family: Muli, sans-serif; font-size: 15px; text-align: start; background-color: rgb(255, 255, 255);&quot;&gt;BirthDate&lt;/span&gt;" style="rounded=0;whiteSpace=wrap;html=1;" parent="1" vertex="1">
          <mxGeometry x="110" y="240" width="120" height="60" as="geometry" />
        </mxCell>
        <mxCell id="ASx7LnkUKc0S-k7tM8Z2-6" value="Name" style="rounded=0;whiteSpace=wrap;html=1;" parent="1" vertex="1">
          <mxGeometry x="110" y="180" width="120" height="60" as="geometry" />
        </mxCell>
        <mxCell id="ASx7LnkUKc0S-k7tM8Z2-7" value="int identity(1,1) primary key" style="rounded=0;whiteSpace=wrap;html=1;" parent="1" vertex="1">
          <mxGeometry x="230" y="120" width="120" height="60" as="geometry" />
        </mxCell>
        <mxCell id="ASx7LnkUKc0S-k7tM8Z2-8" value="Nchar(50)" style="rounded=0;whiteSpace=wrap;html=1;" parent="1" vertex="1">
          <mxGeometry x="230" y="180" width="120" height="60" as="geometry" />
        </mxCell>
        <mxCell id="ASx7LnkUKc0S-k7tM8Z2-9" value="Date" style="rounded=0;whiteSpace=wrap;html=1;" parent="1" vertex="1">
          <mxGeometry x="230" y="240" width="120" height="60" as="geometry" />
        </mxCell>
        <mxCell id="ASx7LnkUKc0S-k7tM8Z2-10" value="Bit" style="rounded=0;whiteSpace=wrap;html=1;" parent="1" vertex="1">
          <mxGeometry x="230" y="300" width="120" height="60" as="geometry" />
        </mxCell>
        <mxCell id="ASx7LnkUKc0S-k7tM8Z2-11" value="&lt;span style=&quot;font-family: Muli, sans-serif; font-size: 15px; text-align: start; background-color: rgb(255, 255, 255);&quot;&gt;IsDeletedFlag&lt;/span&gt;" style="rounded=0;whiteSpace=wrap;html=1;" parent="1" vertex="1">
          <mxGeometry x="110" y="360" width="120" height="60" as="geometry" />
        </mxCell>
        <mxCell id="ASx7LnkUKc0S-k7tM8Z2-12" value="Bit" style="rounded=0;whiteSpace=wrap;html=1;" parent="1" vertex="1">
          <mxGeometry x="230" y="360" width="120" height="60" as="geometry" />
        </mxCell>
      </root>
    </mxGraphModel>
  </diagram>
</mxfile>
